<mxfile host="65bd71144e">
    <diagram id="T9uuaTeBy4bPSP1g8a4x" name="Page-1">
        <mxGraphModel dx="1170" dy="825" grid="1" gridSize="10" guides="1" tooltips="1" connect="1" arrows="1" fold="1" page="1" pageScale="1" pageWidth="827" pageHeight="1169" background="#FFFFFF" math="0" shadow="0">
            <root>
                <mxCell id="0"/>
                <mxCell id="1" parent="0"/>
                <mxCell id="200" value="" style="rounded=0;whiteSpace=wrap;html=1;fillColor=#f5f5f5;fontColor=#333333;strokeColor=#666666;" vertex="1" parent="1">
                    <mxGeometry x="100" y="40" width="120" height="400" as="geometry"/>
                </mxCell>
                <mxCell id="199" value="" style="rounded=0;whiteSpace=wrap;html=1;fillColor=#f5f5f5;fontColor=#333333;strokeColor=#666666;" vertex="1" parent="1">
                    <mxGeometry x="320" y="40" width="120" height="400" as="geometry"/>
                </mxCell>
                <mxCell id="198" value="" style="rounded=0;whiteSpace=wrap;html=1;fillColor=#f5f5f5;fontColor=#333333;strokeColor=#666666;" vertex="1" parent="1">
                    <mxGeometry x="560" y="40" width="120" height="400" as="geometry"/>
                </mxCell>
                <mxCell id="164" value="A" style="rounded=0;whiteSpace=wrap;html=1;" vertex="1" parent="1">
                    <mxGeometry x="120" y="80" width="80" height="40" as="geometry"/>
                </mxCell>
                <mxCell id="165" value="B" style="rounded=0;whiteSpace=wrap;html=1;" vertex="1" parent="1">
                    <mxGeometry x="120" y="140" width="80" height="40" as="geometry"/>
                </mxCell>
                <mxCell id="166" value="C" style="rounded=0;whiteSpace=wrap;html=1;" vertex="1" parent="1">
                    <mxGeometry x="120" y="200" width="80" height="40" as="geometry"/>
                </mxCell>
                <mxCell id="167" value="D" style="rounded=0;whiteSpace=wrap;html=1;" vertex="1" parent="1">
                    <mxGeometry x="120" y="260" width="80" height="40" as="geometry"/>
                </mxCell>
                <mxCell id="168" value="E" style="rounded=0;whiteSpace=wrap;html=1;" vertex="1" parent="1">
                    <mxGeometry x="120" y="320" width="80" height="40" as="geometry"/>
                </mxCell>
                <mxCell id="170" value="" style="endArrow=none;html=1;dashed=1;" edge="1" parent="1">
                    <mxGeometry width="50" height="50" relative="1" as="geometry">
                        <mxPoint x="100" y="369.58" as="sourcePoint"/>
                        <mxPoint x="220" y="369.58" as="targetPoint"/>
                    </mxGeometry>
                </mxCell>
                <mxCell id="171" value="Prioritized list" style="text;html=1;strokeColor=none;fillColor=none;align=center;verticalAlign=middle;whiteSpace=wrap;rounded=0;" vertex="1" parent="1">
                    <mxGeometry x="120" y="40" width="80" height="40" as="geometry"/>
                </mxCell>
                <mxCell id="172" value="MVP" style="shape=curlyBracket;whiteSpace=wrap;html=1;rounded=1;flipH=1;labelPosition=right;verticalLabelPosition=middle;align=left;verticalAlign=middle;" vertex="1" parent="1">
                    <mxGeometry x="210" y="80" width="40" height="190" as="geometry"/>
                </mxCell>
                <mxCell id="174" value="Cutoff to meet time/budget" style="text;html=1;strokeColor=none;fillColor=none;align=center;verticalAlign=middle;whiteSpace=wrap;rounded=0;" vertex="1" parent="1">
                    <mxGeometry x="20" y="350" width="80" height="40" as="geometry"/>
                </mxCell>
                <mxCell id="176" value="A" style="rounded=0;whiteSpace=wrap;html=1;" vertex="1" parent="1">
                    <mxGeometry x="340" y="80" width="80" height="40" as="geometry"/>
                </mxCell>
                <mxCell id="177" value="B" style="rounded=0;whiteSpace=wrap;html=1;" vertex="1" parent="1">
                    <mxGeometry x="340" y="140" width="80" height="40" as="geometry"/>
                </mxCell>
                <mxCell id="178" value="C" style="rounded=0;whiteSpace=wrap;html=1;" vertex="1" parent="1">
                    <mxGeometry x="340" y="200" width="80" height="40" as="geometry"/>
                </mxCell>
                <mxCell id="179" value="D" style="rounded=0;whiteSpace=wrap;html=1;" vertex="1" parent="1">
                    <mxGeometry x="340" y="260" width="80" height="40" as="geometry"/>
                </mxCell>
                <mxCell id="180" value="E" style="rounded=0;whiteSpace=wrap;html=1;" vertex="1" parent="1">
                    <mxGeometry x="340" y="320" width="80" height="40" as="geometry"/>
                </mxCell>
                <mxCell id="181" value="" style="endArrow=none;html=1;dashed=1;" edge="1" parent="1">
                    <mxGeometry width="50" height="50" relative="1" as="geometry">
                        <mxPoint x="320" y="370.0000000000001" as="sourcePoint"/>
                        <mxPoint x="440" y="370.0000000000001" as="targetPoint"/>
                    </mxGeometry>
                </mxCell>
                <mxCell id="182" value="Prioritized list" style="text;html=1;strokeColor=none;fillColor=none;align=center;verticalAlign=middle;whiteSpace=wrap;rounded=0;" vertex="1" parent="1">
                    <mxGeometry x="340" y="40" width="80" height="40" as="geometry"/>
                </mxCell>
                <mxCell id="185" value="" style="endArrow=block;html=1;rounded=0;endFill=1;endSize=3;startSize=3;exitX=0;exitY=0.5;exitDx=0;exitDy=0;" edge="1" parent="1" source="187">
                    <mxGeometry width="50" height="50" relative="1" as="geometry">
                        <mxPoint x="450" y="190" as="sourcePoint"/>
                        <mxPoint x="420" y="190" as="targetPoint"/>
                    </mxGeometry>
                </mxCell>
                <mxCell id="187" value="Δ" style="rounded=0;whiteSpace=wrap;html=1;fillColor=#f8cecc;strokeColor=#b85450;" vertex="1" parent="1">
                    <mxGeometry x="460" y="170" width="80" height="40" as="geometry"/>
                </mxCell>
                <mxCell id="189" value="A" style="rounded=0;whiteSpace=wrap;html=1;" vertex="1" parent="1">
                    <mxGeometry x="580" y="80" width="80" height="40" as="geometry"/>
                </mxCell>
                <mxCell id="190" value="B" style="rounded=0;whiteSpace=wrap;html=1;" vertex="1" parent="1">
                    <mxGeometry x="580" y="140" width="80" height="40" as="geometry"/>
                </mxCell>
                <mxCell id="191" value="C" style="rounded=0;whiteSpace=wrap;html=1;" vertex="1" parent="1">
                    <mxGeometry x="580" y="260" width="80" height="40" as="geometry"/>
                </mxCell>
                <mxCell id="192" value="D" style="rounded=0;whiteSpace=wrap;html=1;" vertex="1" parent="1">
                    <mxGeometry x="580" y="320" width="80" height="40" as="geometry"/>
                </mxCell>
                <mxCell id="193" value="E" style="rounded=0;whiteSpace=wrap;html=1;" vertex="1" parent="1">
                    <mxGeometry x="580" y="380" width="80" height="40" as="geometry"/>
                </mxCell>
                <mxCell id="194" value="" style="endArrow=none;html=1;dashed=1;" edge="1" parent="1">
                    <mxGeometry width="50" height="50" relative="1" as="geometry">
                        <mxPoint x="560" y="370.0000000000001" as="sourcePoint"/>
                        <mxPoint x="680" y="370.0000000000001" as="targetPoint"/>
                    </mxGeometry>
                </mxCell>
                <mxCell id="195" value="Prioritized list" style="text;html=1;strokeColor=none;fillColor=none;align=center;verticalAlign=middle;whiteSpace=wrap;rounded=0;" vertex="1" parent="1">
                    <mxGeometry x="580" y="40" width="80" height="40" as="geometry"/>
                </mxCell>
                <mxCell id="197" value="Δ" style="rounded=0;whiteSpace=wrap;html=1;fillColor=#f8cecc;strokeColor=#b85450;" vertex="1" parent="1">
                    <mxGeometry x="580" y="200" width="80" height="40" as="geometry"/>
                </mxCell>
            </root>
        </mxGraphModel>
    </diagram>
</mxfile>